<?xml version="1.0" standalone="no"?><!DOCTYPE svg PUBLIC "-//W3C//DTD SVG 1.1//EN" "http://www.w3.org/Graphics/SVG/1.1/DTD/svg11.dtd"><svg t="1614047828100" class="icon" viewBox="0 0 1024 1024" version="1.1" xmlns="http://www.w3.org/2000/svg" p-id="3257" xmlns:xlink="http://www.w3.org/1999/xlink" width="200" height="200"><defs><style type="text/css"></style></defs><path d="M514.1504 333.0048a148.096 148.096 0 1 1 148.06016 148.19328A148.3264 148.3264 0 0 1 514.1504 333.0048m478.2848-217.51808a84.15232 84.15232 0 0 0-82.81088-84.43904h-0.07168C908.12928 30.98112 761.89184 25.6 651.4432 25.6c-127.10912 0-138.58304 6.144-152.33536 19.91168L302.5408 242.20672 50.26816 494.68928a84.96128 84.96128 0 0 0 0.256 119.97696l358.70208 358.912A84.48 84.48 0 0 0 469.34016 998.4a83.456 83.456 0 0 0 59.66336-24.64768l280.75008-280.8064L977.92 524.57984c14.848-14.78656 28.78976-28.79488 14.52032-409.088" p-id="3258"></path></svg>