<?xml version="1.0" standalone="no"?><!DOCTYPE svg PUBLIC "-//W3C//DTD SVG 1.1//EN" "http://www.w3.org/Graphics/SVG/1.1/DTD/svg11.dtd"><svg t="1614047801295" class="icon" viewBox="0 0 1024 1024" version="1.1" xmlns="http://www.w3.org/2000/svg" p-id="2411" xmlns:xlink="http://www.w3.org/1999/xlink" width="200" height="200"><defs><style type="text/css"></style></defs><path d="M512 64C264.58 64 64 264.58 64 512s200.58 448 448 448 448-200.57 448-448S759.42 64 512 64z m128 416a32 32 0 0 1 0 64h-96v64h96a32 32 0 0 1 0 64h-96v64a32 32 0 0 1-64 0v-64h-96a32 32 0 0 1 0-64h96v-64h-96a32 32 0 0 1 0-64h78.86L353.61 370.75a32 32 0 0 1 45.25-45.26L512 438.63l113.14-113.14a32 32 0 0 1 45.25 45.26L561.14 480z" p-id="2412"></path></svg>