<?xml version="1.0" standalone="no"?><!DOCTYPE svg PUBLIC "-//W3C//DTD SVG 1.1//EN" "http://www.w3.org/Graphics/SVG/1.1/DTD/svg11.dtd"><svg t="1614047946837" class="icon" viewBox="0 0 1024 1024" version="1.1" xmlns="http://www.w3.org/2000/svg" p-id="4140" xmlns:xlink="http://www.w3.org/1999/xlink" width="200" height="200"><defs><style type="text/css"></style></defs><path d="M833.944426 41.317434v938.638748a45.487878 45.487878 0 0 1-49.098027 41.155699h-13.718566a44.765848 44.765848 0 0 1-49.098027-38.98961V41.317434a45.487878 45.487878 0 0 1 49.098027-41.155699h13.718566a45.487878 45.487878 0 0 1 49.098027 41.155699zM547.298593 322.909058v628.887961a45.487878 45.487878 0 0 1-49.098027 41.155699h-13.718566a45.487878 45.487878 0 0 1-51.264116-41.155699V322.909058a45.487878 45.487878 0 0 1 48.375997-41.155699h16.606685a45.487878 45.487878 0 0 1 49.098027 41.155699zM239.713896 562.622954v389.174065a46.209908 46.209908 0 0 1-49.098027 41.155699h-13.718566a46.209908 46.209908 0 0 1-49.098027-41.155699V562.622954a46.209908 46.209908 0 0 1 49.098027-41.155699h13.718566a46.209908 46.209908 0 0 1 49.098027 41.155699z" p-id="4141"></path><path d="M627.443902 1024m-38.98961 0l-549.464682 0q-38.98961 0-38.98961-38.98961l0-2.166089q0-38.98961 38.98961-38.989609l549.464682 0q38.98961 0 38.98961 38.989609l0 2.166089q0 38.98961-38.98961 38.98961Z" p-id="4142"></path><path d="M1023.116236 1024m-38.98961 0l-223.10721 0q-38.98961 0-38.98961-38.98961l0-2.166089q0-38.98961 38.98961-38.989609l223.10721 0q38.98961 0 38.98961 38.989609l0 2.166089q0 38.98961-38.98961 38.98961Z" p-id="4143"></path></svg>